<!DOCTYPE svg PUBLIC "-//W3C//DTD SVG 1.1//EN" "http://www.w3.org/Graphics/SVG/1.1/DTD/svg11.dtd">
<!-- Uploaded to: SVG Repo, www.svgrepo.com, Transformed by: SVG Repo Mixer Tools -->
<svg fill="#ffffff" height="80px" width="80px" version="1.1" id="Capa_1" xmlns="http://www.w3.org/2000/svg" xmlns:xlink="http://www.w3.org/1999/xlink" viewBox="0 0 383.114 383.114" xml:space="preserve" stroke="#ffffff" stroke-width="0.0038311400000000002">
<g id="SVGRepo_bgCarrier" stroke-width="0"/>
<g id="SVGRepo_tracerCarrier" stroke-linecap="round" stroke-linejoin="round" stroke="#CCCCCC" stroke-width="2.2986839999999997"/>
<g id="SVGRepo_iconCarrier"> <path d="M144.114,316.654c4.864,1.025,7.976,5.8,6.95,10.663c-0.894,4.237-4.633,7.146-8.798,7.146 c-0.615,0-1.239-0.063-1.865-0.195c-52.492-11.066-93.56-52.135-104.624-104.627c-1.025-4.864,2.087-9.638,6.951-10.663 c4.86-1.024,9.637,2.087,10.663,6.95C62.984,271.446,98.596,307.058,144.114,316.654z M177.525,201.533c0-4.971-4.029-9-9-9h-0.031 c-4.971,0-8.984,4.029-8.984,9s4.044,9,9.015,9S177.525,206.503,177.525,201.533z M383.114,22.071v109.6c0,4.971-4.029,9-9,9 s-9-4.029-9-9v-10.949H225.56l-30.513,52.852c5.318,5.05,9.203,11.599,10.969,18.96h43.302v-42.865c0-4.971,4.029-9,9-9s9,4.029,9,9 v51.598c0.002,0.089,0.004,0.178,0.004,0.268c0,29.557-13.044,56.124-33.679,74.247c-0.21,0.222-0.434,0.436-0.67,0.64 c-8.145,7.018-17.32,12.601-27.13,16.603c-11.401,4.669-23.861,7.267-36.911,7.321c-0.02,0.003-0.038,0-0.056,0 c-0.024,0-0.044,0-0.067,0.001c-0.025,0.001-0.048,0.001-0.071,0c-0.025-0.001-0.051-0.001-0.074,0c-0.025,0-0.052,0-0.076,0 c-0.028,0-0.079-0.007-0.078,0c0,0,0,0,0,0c-17.77,0-34.465-4.718-48.89-12.964c-0.172-0.086-0.344-0.178-0.513-0.275 c-0.179-0.103-0.353-0.212-0.522-0.325c-29.227-17.183-48.887-48.963-48.887-85.247s19.661-68.064,48.888-85.247 c0.169-0.113,0.343-0.223,0.522-0.325c0.169-0.098,0.34-0.189,0.513-0.275c14.427-8.248,31.117-12.964,48.893-12.964 c0.719,0,1.419,0.084,2.089,0.244c0.671-0.16,1.37-0.244,2.089-0.244h47.517c0.109-0.003,0.22-0.003,0.329,0h144.578V51.022H172.69 c-0.717,0-1.415-0.084-2.083-0.242c-0.668,0.158-1.366,0.242-2.083,0.242C85.519,51.022,18,118.541,18,201.533 s67.519,150.511,150.512,150.511c57.937,0,111.379-33.87,136.151-86.288c0.416-0.878,0.954-1.658,1.586-2.329 c8.479-18.72,13.235-39.469,13.32-61.301c-0.002-0.075-0.003-0.149-0.003-0.225v-52.233c0-4.971,4.029-9,9-9s9,4.029,9,9v51.598 c0.002,0.089,0.004,0.178,0.004,0.268c0,92.917-75.594,168.511-168.512,168.511c-0.182,0-0.363,0-0.546,0 C75.594,370.043,0,294.45,0,201.533S75.594,33.022,168.512,33.022c0.719,0,1.419,0.084,2.089,0.244 c0.671-0.16,1.37-0.244,2.089-0.244h192.424V22.071c0-4.971,4.029-9,9-9S383.114,17.1,383.114,22.071z M88.195,192.533h42.81 c1.767-7.362,5.651-13.91,10.971-18.961l-21.397-37.063C102.922,149.559,90.745,169.614,88.195,192.533z M120.577,266.557 l21.398-37.063c-5.319-5.051-9.204-11.599-10.971-18.961h-42.81C90.745,233.455,102.92,253.508,120.577,266.557z M200.871,275.581 l-21.4-37.068c-3.475,1.032-7.153,1.586-10.958,1.586c-3.806,0-7.483-0.554-10.959-1.586l-21.401,37.069 c9.913,4.348,20.86,6.763,32.36,6.763c0.02,0,0.041,0,0.063,0h0.002c0.026,0,0.047,0,0.071,0c0.021,0,0.048,0,0.066,0 c0.023,0,0.044-0.001,0.068,0c0.019-0.002,0.043-0.001,0.063-0.001c0.008,0,0.01,0,0.019,0c10.25-0.045,20.315-2.037,29.685-5.788 C199.331,276.242,200.102,275.917,200.871,275.581z M168.512,222.098c11.339,0,20.564-9.226,20.564-20.565 s-9.225-20.565-20.564-20.565c-11.341,0-20.567,9.226-20.567,20.565S157.171,222.098,168.512,222.098z M195.047,229.493 l21.398,37.063c17.654-13.049,29.83-33.104,32.379-56.022h-42.808C204.25,217.894,200.365,224.443,195.047,229.493z M204.775,120.721H172.69c-0.717,0-1.415-0.084-2.083-0.242c-0.668,0.158-1.366,0.242-2.083,0.242 c-11.505,0-22.456,2.415-32.372,6.765l21.4,37.067c3.476-1.032,7.153-1.586,10.959-1.586c3.805,0,7.483,0.554,10.958,1.586 L204.775,120.721z"/> </g>
</svg>