<svg viewBox="0 0 24 24" xmlns="http://www.w3.org/2000/svg"><path d="M19.835 12.676a.568.568 0 0 1-.329.598l-8.445 3.808c-.5.227-1.083.198-1.557-.076l-6.386-3.687a1.707 1.707 0 0 1-.624-2.33l1.5-2.598-1.57-1.77a1.703 1.703 0 0 1-.2-1.985l.507-.878a1.704 1.704 0 0 1 2.753-.279L6.76 4.92l2.382 1.375.568-.984-1.477-.853a.568.568 0 0 1 .569-.985l3.938 2.274a.568.568 0 0 1-.568.985l-1.477-.853-.569.985 2.054 1.185c.395.228.677.596.795 1.036l.613 2.288 5.764.82c.25.036.447.233.482.483zm-16.56-6.81l1.319 1.487L5.7 5.437 4.633 4.234a.568.568 0 0 0-.917.093l-.507.878a.568.568 0 0 0 .067.661zm7.317 10.18l1.01-.455-7.839-4.525-.284.492a.57.57 0 0 0 .208.776l6.385 3.687a.57.57 0 0 0 .52.025zm2.286-1.03l4.375-1.973-4.196-.597a.569.569 0 0 1-.47-.416l-.71-2.651a.565.565 0 0 0-.264-.345L6.605 6.143 4.331 10.08l8.547 4.934zm8.251 2.731a2.276 2.276 0 0 1-2.004 3.349 2.276 2.276 0 0 1-2.004-3.349l1.49-3.147a.568.568 0 0 1 1.028 0l1.49 3.147zm-2.004 2.212a1.138 1.138 0 0 0 .983-1.711l-.983-2.077-.983 2.077a1.121 1.121 0 0 0-.154.574c0 .627.51 1.137 1.137 1.137z" fill="#F47D2F" fill-rule="evenodd"/></svg>