<svg viewBox="0 0 24 24" xmlns="http://www.w3.org/2000/svg"><path d="M11.698 1.995c5.333 0 9.702 4.368 9.702 9.703 0 5.333-4.368 9.702-9.702 9.702s-9.703-4.368-9.703-9.702 4.368-9.703 9.703-9.703zm0 18.268c4.723 0 8.565-3.842 8.565-8.565 0-4.724-3.842-8.566-8.565-8.566-4.724 0-8.566 3.842-8.566 8.566 0 4.723 3.842 8.565 8.566 8.565zm0-14.592a6.033 6.033 0 0 1 6.026 6.027c0 3.333-2.716 6.026-6.026 6.026-3.31 0-6.027-2.692-6.027-6.026a6.033 6.033 0 0 1 6.027-6.027zm0 7.277a1.25 1.25 0 1 0 .001-2.5 1.25 1.25 0 0 0-.002 2.5zm-4.89-1.25c0 .687.143 1.341.4 1.935l2.197-1.268a2.38 2.38 0 0 1 0-1.334L7.208 9.762a4.861 4.861 0 0 0-.4 1.936zm7.182-.667a2.38 2.38 0 0 1 0 1.334l2.197 1.268a4.86 4.86 0 0 0 .4-1.935c0-.688-.143-1.342-.4-1.936l-2.197 1.269zm1.627-2.253a4.89 4.89 0 0 0-3.35-1.936v2.537c.446.11.844.345 1.153.668l2.197-1.269zm-4.488-1.936a4.89 4.89 0 0 0-3.35 1.936l2.196 1.269a2.387 2.387 0 0 1 1.154-.668V6.842zm-3.35 7.775a4.89 4.89 0 0 0 3.35 1.936v-2.537a2.387 2.387 0 0 1-1.154-.668l-2.197 1.269zm4.487 1.936a4.89 4.89 0 0 0 3.351-1.936l-2.197-1.269a2.387 2.387 0 0 1-1.154.668v2.537z" fill="#F47D2F" fill-rule="evenodd"/></svg>