<svg viewBox="0 0 24 24" xmlns="http://www.w3.org/2000/svg"><g fill="none" fill-rule="evenodd"><path d="M0 0h24v24H0z"/><path d="M12.54 9.81h1.61A2.15 2.15 0 0 1 16.3 12v8c0 .294-.06.575-.166.83h2.626V9.43a3.12 3.12 0 0 0-5.697-1.773 3.115 3.115 0 0 0-.523 1.733zm-1.28 0v-.37a4.379 4.379 0 0 1 2.52-4V3.11H12.5a3.13 3.13 0 0 0-3.11 3.15H8.15a4.35 4.35 0 0 1 4.35-4.38h5.63a.62.62 0 0 1 .43-.6L22.31 0a.64.64 0 0 1 .57.12.63.63 0 0 1 .27.51v3.74a.63.63 0 0 1-.27.51.61.61 0 0 1-.37.12h-.2l-3.79-1.29a.62.62 0 0 1-.43-.6h-.6v2.34A4.38 4.38 0 0 1 20 9.4v12a.65.65 0 0 1-.62.67h-4.647c-.185.052-.38.08-.583.08h-12A2.15 2.15 0 0 1 0 20v-8a2.15 2.15 0 0 1 2.15-2.19zM1.3 12v8c0 .47.38.85.85.85h12c.47 0 .85-.38.85-.85v-8a.85.85 0 0 0-.85-.85h-12a.85.85 0 0 0-.85.85zM7 19.11v-2H5v-2.3h2v-2h2.3v2h2v2.3h-2v2zm9.25-14.05V3.11h-1.24v1.95a3.87 3.87 0 0 1 1.24 0zm5.66-1.55V1.49l-2.51.84v.35z" fill="#f37c2e" fill-rule="nonzero"/></g></svg>