<svg viewBox="0 0 24 24" xmlns="http://www.w3.org/2000/svg"><path d="M11.128 19.087a.568.568 0 1 1 0-1.137.568.568 0 0 1 0 1.137zm-6.253-6.253a.568.568 0 1 1 0-1.137.568.568 0 0 1 0 1.137zm1.832 4.421a.568.568 0 1 1 0-1.137.568.568 0 0 1 0 1.137zm0-8.88a.568.568 0 1 1 0-1.138.568.568 0 0 1 0 1.137zm8.843 8.88a.568.568 0 1 1 0-1.137.568.568 0 0 1 0 1.137zm-3.853-15.26c5.333 0 9.702 4.367 9.702 9.702a.568.568 0 0 1-.569.568h-.606c0 5.036-4.08 9.134-9.096 9.134-5.027 0-9.133-4.106-9.133-9.134 0-5.027 4.106-9.133 9.133-9.133v-.569a.57.57 0 0 1 .569-.568zm-.569 18.267c4.389 0 7.959-3.591 7.959-8H17.38a.565.565 0 0 1-.568-.565c0-2.842-2.295-5.154-5.116-5.154a.568.568 0 0 1-.569-.569V4.27c-4.409 0-7.996 3.587-7.996 7.996 0 4.41 3.587 7.997 7.996 7.997zm6.797-9.134h2.318c-.281-4.27-3.707-7.696-7.978-7.977v2.28c3 .273 5.392 2.702 5.66 5.697zM11.128 7.68c2.508 0 4.548 2.057 4.548 4.585a4.553 4.553 0 0 1-4.548 4.548 4.553 4.553 0 0 1-4.547-4.548c0-2.528 2.04-4.585 4.547-4.585zm0 7.996a3.414 3.414 0 0 0 3.411-3.41c0-1.902-1.53-3.45-3.41-3.45-1.881 0-3.411 1.548-3.411 3.45 0 1.88 1.53 3.41 3.41 3.41zm0-5.685a2.276 2.276 0 0 1 2.274 2.274 2.276 2.276 0 0 1-2.274 2.274 2.276 2.276 0 0 1-2.274-2.274 2.276 2.276 0 0 1 2.274-2.274zm0 3.411a1.138 1.138 0 0 0 0-2.274 1.138 1.138 0 0 0 0 2.274z" fill="#F47D2F" fill-rule="evenodd"/></svg>