<!DOCTYPE svg PUBLIC "-//W3C//DTD SVG 1.1//EN" "http://www.w3.org/Graphics/SVG/1.1/DTD/svg11.dtd">
<!-- Uploaded to: SVG Repo, www.svgrepo.com, Transformed by: SVG Repo Mixer Tools -->
<svg fill="#F37C2E" version="1.1" id="Layer_1" xmlns="http://www.w3.org/2000/svg" xmlns:xlink="http://www.w3.org/1999/xlink" viewBox="-51.2 -51.2 614.40 614.40" xml:space="preserve" width="150px" height="150px" stroke="#F37C2E" stroke-width="0.00512" transform="matrix(1, 0, 0, 1, 0, 0)">
<g id="SVGRepo_bgCarrier" stroke-width="0"/>
<g id="SVGRepo_tracerCarrier" stroke-linecap="round" stroke-linejoin="round" stroke="#CCCCCC" stroke-width="3.072"/>
<g id="SVGRepo_iconCarrier"> <g> <g> <path d="M431.944,0.652h-98.727c-41.815,0-75.835,34.019-75.835,75.835V239.63h-88.908c-15.132,0-27.441-12.31-27.441-27.441 v-18.893c33.384-7.614,58.378-37.523,58.378-73.179c0-41.395-33.678-75.074-75.074-75.074s-75.074,33.678-75.074,75.074 c0,35.656,24.996,65.565,58.378,73.179v18.893c0,33.544,27.29,60.832,60.832,60.832h88.908v163.143 c0,41.815,34.019,75.835,75.835,75.835h98.727c41.815,0,75.835-34.019,75.835-75.835V76.488 C507.779,34.672,473.76,0.652,431.944,0.652z M124.338,161.8c-22.983,0-41.682-18.698-41.682-41.682 c0-22.983,18.699-41.682,41.682-41.682c22.983,0,41.682,18.699,41.682,41.682S147.321,161.8,124.338,161.8z M367.251,478.609 h-34.034c-23.403,0-42.444-19.04-42.444-42.444V76.488c0-23.404,19.04-42.444,42.444-42.444h34.031l-21.698,31.098l33.346,47.795 l-33.346,47.794l33.346,47.789l-33.346,47.793l33.346,47.795l-33.346,47.796l33.347,47.796l-33.346,47.801L367.251,478.609z M474.388,436.165c0,23.403-19.04,42.444-42.444,42.444h-23.979l-21.7-31.106l33.346-47.802l-33.345-47.795l33.346-47.796 l-33.346-47.795l33.346-47.794l-33.346-47.789l33.346-47.793l-33.346-47.795l21.698-31.098h23.981 c23.403,0,42.444,19.04,42.444,42.444V436.165z"/> </g> </g> <g> <g> <rect x="107.642" y="97.892" width="33.391" height="22.231"/> </g> </g> <g> <g> <path d="M124.338,0C58.105,0,4.221,53.885,4.221,120.117h33.391c0-47.821,38.905-86.726,86.726-86.726 s86.726,38.905,86.726,86.726h33.391C244.455,53.885,190.571,0,124.338,0z"/> </g> </g> </g>
</svg>