<!DOCTYPE svg PUBLIC "-//W3C//DTD SVG 1.1//EN" "http://www.w3.org/Graphics/SVG/1.1/DTD/svg11.dtd">
<!-- Uploaded to: SVG Repo, www.svgrepo.com, Transformed by: SVG Repo Mixer Tools -->
<svg fill="#F37C2E" height="800px" width="800px" version="1.1" id="Layer_1" xmlns="http://www.w3.org/2000/svg" xmlns:xlink="http://www.w3.org/1999/xlink" viewBox="0 0 512 512" xml:space="preserve" stroke="#F37C2E">
<g id="SVGRepo_bgCarrier" stroke-width="0"/>
<g id="SVGRepo_tracerCarrier" stroke-linecap="round" stroke-linejoin="round"/>
<g id="SVGRepo_iconCarrier"> <g> <g> <g> <path d="M66.698,511.999c0.016,0,0.031,0.001,0.048,0.001C66.783,512,66.764,512,66.698,511.999z"/> <path d="M507.675,46.684c-1.99-3.946-5.466-6.939-9.663-8.32L384.086,0.842c-8.742-2.882-18.159,1.874-21.036,10.613 l-12.578,38.189c-1.383,4.196-1.041,8.77,0.95,12.715c1.99,3.946,5.466,6.939,9.663,8.32l10.592,3.489l-14.964,45.558h-4.38 c-9.201,0-16.66,7.459-16.66,16.66c0,7.018,4.345,13.011,10.487,15.465l-10.585,32.226h-7.514c-9.201,0-16.66,7.459-16.66,16.661 c0,8.064,5.729,14.788,13.34,16.327l-7.146,21.756l-10.723-3.532c-8.732-2.878-18.158,1.874-21.036,10.613l-12.578,38.189 c-1.373,4.168-0.994,8.485,0.71,12.179h-83.894v-70.436c0-33.53-27.279-60.807-60.809-60.807H63.348 c-33.53,0-60.809,27.279-60.809,60.807v224.997c0,30.003,22.217,58.071,58.169,60.915c8.152-0.06,27.592-0.106,68.557-0.106 c33.53,0,60.809-27.279,60.809-60.809v-70.436h91.673c12.227,14.974,30.82,24.555,51.614,24.555 c35.108,0,63.94-27.305,66.423-61.792c1.078,0.214,2.158,0.331,3.228,0.331c6.997,0,13.514-4.444,15.822-11.454l12.578-38.189 c2.879-8.739-1.873-18.158-10.613-21.036l-10.064-3.314l17.113-52.098h4.462c9.201,0,16.661-7.459,16.661-16.661 c0-7.046-4.381-13.056-10.561-15.492l10.576-32.199h4.838c9.201,0,16.66-7.459,16.66-16.661c0-7.172-4.541-13.267-10.897-15.615 l5.231-15.926l10.195,3.358c4.197,1.383,8.771,1.04,12.716-0.949c3.945-1.99,6.939-5.467,8.32-9.663l12.578-38.19 C510.007,55.202,509.665,50.628,507.675,46.684z M50.085,474.896c-8.474-4.687-14.225-13.716-14.225-24.065V225.833 c0-10.349,5.751-19.377,14.225-24.066V474.896z M107.518,478.317H83.405V198.347h24.113V478.317z M156.752,312.93v50.803v87.098 c0,11.023-6.525,20.546-15.912,24.923V200.911c9.388,4.377,15.912,13.899,15.912,24.922V312.93z M267.316,347.074h-77.244 v-17.482h77.244C266.526,335.559,266.587,341.563,267.316,347.074z M312.271,272.15l4.803,1.583 c-1.095,0.274-3.993,1.106-5.911,1.784L312.271,272.15z M333.358,371.629c-17.369,0-31.852-13.433-33.188-30.726 c-0.013-0.179-0.03-0.357-0.041-0.536c-1.176-19.242,14.198-35.331,33.229-35.331c18.63,0,33.297,15.205,33.297,33.298 C366.655,356.692,351.718,371.629,333.358,371.629z M373.926,285.448c-10.16-7.796-22.234-12.324-34.301-13.443 c4.13-3.88,3.084-2.871,20.078-54.607h33.071l-18.893,57.518C372.712,278.477,372.808,282.151,373.926,285.448z M392.395,305.789 l-1.099-0.361c-1.886-3.328-4.035-6.456-6.415-9.364l9.668,3.184L392.395,305.789z M403.718,184.077h-33.071l10.193-31.031 h33.071L403.718,184.077z M469.61,71.341l-10.207-3.362c-4.2-1.385-8.776-1.04-12.723,0.952 c-3.946,1.993-6.939,5.472-8.318,9.673l-13.507,41.12h-33.071l16.744-50.976c2.87-8.737-1.883-18.147-10.617-21.023 l-10.578-3.484l2.154-6.541l82.278,27.097L469.61,71.341z"/> <path d="M66.698,511.999c-2.04-0.001-4.031-0.099-5.99-0.253C46.914,511.847,65.441,511.985,66.698,511.999z"/> </g> </g> </g> </g>
</svg>