<!DOCTYPE svg PUBLIC "-//W3C//DTD SVG 1.1//EN" "http://www.w3.org/Graphics/SVG/1.1/DTD/svg11.dtd">
<!-- Uploaded to: SVG Repo, www.svgrepo.com, Transformed by: SVG Repo Mixer Tools -->
<svg fill="#F37C2E" height="150px" width="150px" version="1.1" id="Layer_1" xmlns="http://www.w3.org/2000/svg" xmlns:xlink="http://www.w3.org/1999/xlink" viewBox="-51.2 -51.2 614.40 614.40" xml:space="preserve" stroke="#F37C2E">
<g id="SVGRepo_bgCarrier" stroke-width="0"/>
<g id="SVGRepo_tracerCarrier" stroke-linecap="round" stroke-linejoin="round"/>
<g id="SVGRepo_iconCarrier"> <g> <g> <g> <path d="M319.654,17.509C317.806,7.37,308.973,0.002,298.667,0.002C134.431,0.002,0,113.753,0,256.002s134.431,256,298.667,256 c10.306,0,19.139-7.368,20.987-17.507l2.155-11.819c26.024-153.137,26.035-306.534,0.018-453.247L319.654,17.509z M280.869,468.828C147.171,461.181,42.667,368.033,42.667,256.002c0-112.045,104.529-205.201,238.249-212.829 C304.607,180.973,304.596,325.021,280.869,468.828z"/> <path d="M373.024,146.295l106.667,64c10.103,6.062,23.207,2.786,29.269-7.317c6.062-10.103,2.786-23.207-7.317-29.269 l-106.667-64c-10.103-6.062-23.207-2.786-29.269,7.317C359.645,127.129,362.921,140.233,373.024,146.295z"/> <path d="M501.643,301.708l-106.667-64c-10.103-6.062-23.207-2.786-29.269,7.317c-6.062,10.103-2.786,23.207,7.317,29.269 l106.667,64c10.103,6.062,23.207,2.786,29.269-7.317C515.022,320.874,511.746,307.77,501.643,301.708z"/> <path d="M501.643,429.708l-106.667-64c-10.103-6.062-23.207-2.786-29.269,7.317c-6.062,10.103-2.786,23.207,7.317,29.269 l106.667,64c10.103,6.062,23.207,2.786,29.269-7.317C515.022,448.875,511.746,435.77,501.643,429.708z"/> </g> </g> </g> </g>
</svg>