<svg viewBox="0 0 24 24" xmlns="http://www.w3.org/2000/svg"><path d="M16.716 4.601c-1.114-.371-2.571-.583-4.122-.6a18.226 18.226 0 0 0-.407 0c-1.552.017-3.009.229-4.123.6C6.358 5.17 6 5.924 6 6.458v9.863c0 .394.195.908.983 1.38v1.11c0 .828.997 1.276 1.79 1.514.973.292 2.258.453 3.617.453 1.36 0 2.644-.16 3.617-.453.793-.237 1.79-.686 1.79-1.513V17.7c.788-.47.983-.985.983-1.379V6.458c0-.534-.358-1.288-2.064-1.857zm-4.326.382c.909 0 2.516.105 3.299.492-.772.381-2.358.491-3.299.491-.938 0-2.531-.112-3.299-.491.772-.382 2.358-.492 3.3-.492zM7.7 16.972c-.552-.276-.717-.53-.717-.65V7.835c.259.155.582.305.983.445v8.812a4.33 4.33 0 0 1-.256-.116l-.01-.005zm9.114 1.835c-.023.068-.287.355-1.218.614-.869.241-2.008.374-3.206.374s-2.337-.133-3.206-.374c-.931-.259-1.195-.546-1.218-.614v-.662c1.339.465 3 .634 4.424.634 1.415 0 3.083-.168 4.424-.634v.662zm-7.865-1.394V8.56c.312.071.641.132.983.183v8.87a11.068 11.068 0 0 1-.983-.2zm1.966.32V8.855c.321.027.65.045.984.054v8.88c-.335-.01-.664-.028-.984-.056zm1.967.056v-8.88c.333-.01.662-.027.983-.054v8.878c-.32.028-.648.047-.983.056zm1.966-.176v-8.87c.342-.05.67-.112.983-.183v8.853c-.308.078-.637.145-.983.2zm2.949-1.292c0 .12-.165.375-.716.65a4.356 4.356 0 0 1-.267.122V8.281c.401-.14.724-.29.983-.445v8.485zm-1.391-8.94c-1.222.408-2.733.551-4.016.551-3.3 0-5.407-.916-5.407-1.474 0-.14.222-.46 1.01-.783.303 1.123 3.234 1.274 4.397 1.274 1.163 0 4.094-.151 4.397-1.274.788.323 1.01.644 1.01.783 0 .159-.29.557-1.391.924z" fill="#F47D2F" fill-rule="evenodd"/></svg>