<!DOCTYPE svg PUBLIC "-//W3C//DTD SVG 1.1//EN" "http://www.w3.org/Graphics/SVG/1.1/DTD/svg11.dtd">
<!-- Uploaded to: SVG Repo, www.svgrepo.com, Transformed by: SVG Repo Mixer Tools -->
<svg fill="#F37C2E" height="150px" width="150px" version="1.1" id="Capa_1" xmlns="http://www.w3.org/2000/svg" xmlns:xlink="http://www.w3.org/1999/xlink" viewBox="-37.41 -37.41 448.92 448.92" xml:space="preserve">
<g id="SVGRepo_bgCarrier" stroke-width="0"/>
<g id="SVGRepo_tracerCarrier" stroke-linecap="round" stroke-linejoin="round"/>
<g id="SVGRepo_iconCarrier"> <path d="M310.384,114.877h14.884c13.926,0,25.255-11.329,25.255-25.255V25.255C350.523,11.329,339.194,0,325.268,0h-14.884 c-13.927,0-25.257,11.329-25.257,25.255v23.184h-62.852c-4.015-15.704-18.282-27.35-35.22-27.35 c-16.939,0-31.207,11.646-35.222,27.35H88.977V25.255C88.977,11.329,77.648,0,63.724,0H48.839C34.912,0,23.581,11.329,23.581,25.255 v64.367c0,13.926,11.331,25.255,25.259,25.255h14.884c13.924,0,25.253-11.329,25.253-25.255V66.438h62.856 c3.279,12.825,13.396,22.941,26.222,26.22v168.006c-11.573,3.794-19.958,14.692-19.958,27.518v19.482h-69.12v-23.184 c0-13.926-11.329-25.255-25.253-25.255H48.839c-13.928,0-25.259,11.329-25.259,25.255v64.367c0,13.926,11.331,25.255,25.259,25.255 h14.884c13.924,0,25.253-11.329,25.253-25.255v-23.184h69.12v19.483c0,15.966,12.991,28.955,28.958,28.955 c15.965,0,28.954-12.989,28.954-28.955v-19.483h69.118v23.184c0,13.926,11.33,25.255,25.257,25.255h14.884 c13.926,0,25.255-11.329,25.255-25.255v-64.367c0-13.926-11.329-25.255-25.255-25.255h-14.884 c-13.927,0-25.257,11.329-25.257,25.255v23.184h-69.118v-19.482c0-12.824-8.383-23.721-19.954-27.516V92.659 c12.825-3.279,22.941-13.396,26.22-26.22h62.852v23.184C285.127,103.548,296.457,114.877,310.384,114.877z M70.977,89.622 c0,4-3.253,7.255-7.253,7.255H48.839c-4.002,0-7.259-3.255-7.259-7.255V25.255c0-4,3.256-7.255,7.259-7.255h14.884 c4,0,7.253,3.255,7.253,7.255V89.622z M70.977,348.849c0,4-3.253,7.255-7.253,7.255H48.839c-4.002,0-7.259-3.255-7.259-7.255 v-64.367c0-4,3.256-7.255,7.259-7.255h14.884c4,0,7.253,3.255,7.253,7.255V348.849z M303.127,284.481c0-4,3.255-7.255,7.257-7.255 h14.884c4,0,7.255,3.255,7.255,7.255v64.367c0,4-3.254,7.255-7.255,7.255h-14.884c-4.001,0-7.257-3.255-7.257-7.255V284.481z M198.009,345.148c0,6.041-4.914,10.955-10.954,10.955h-0.002c-6.041,0-10.956-4.914-10.956-10.955v-56.966 c0-6.041,4.916-10.956,10.958-10.956c6.04,0,10.954,4.915,10.954,10.956V345.148z M187.692,75.756 c-0.211-0.015-0.422-0.032-0.637-0.032s-0.426,0.017-0.637,0.032c-9.823-0.34-17.714-8.414-17.714-18.317 c0-10.118,8.232-18.35,18.352-18.35c10.118,0,18.349,8.231,18.349,18.35C205.404,67.342,197.513,75.416,187.692,75.756z M303.127,25.255c0-4,3.255-7.255,7.257-7.255h14.884c4,0,7.255,3.255,7.255,7.255v64.367c0,4-3.254,7.255-7.255,7.255h-14.884 c-4.001,0-7.257-3.255-7.257-7.255V25.255z"/> </g>
</svg>