<svg version="1.1" id="Layer_1" xmlns="http://www.w3.org/2000/svg" xmlns:xlink="http://www.w3.org/1999/xlink" x="0px" y="0px" viewBox="0 0 247.2672 202.7761" enable-background="new 0 0 247.2672 202.7761" xml:space="preserve">
<g>
<path d="M21.3713,180.5715c-5.3889,0-10.552-1.7072-14.8386-4.8497v0.4787v23.8234c0,1.52,1.2322,2.7523,2.7522,2.7523h25.0974
		c1.52,0,2.7522-1.2323,2.7522-2.7523v-19.0677v-0.3846H21.3713z" id="id_109" style="fill: rgb(19, 37, 48);"></path>
<path d="M225.8945,180.5715h-15.7615v0.3846v19.0677c0,1.52,1.2322,2.7523,2.7522,2.7523h25.0972
		c1.5203,0,2.7524-1.2323,2.7524-2.7523v-23.8242v-0.4786C236.448,178.8638,231.2842,180.5715,225.8945,180.5715z" id="id_110" style="fill: rgb(19, 37, 48);"></path>
<path d="M243.5271,48.8394h-24.5483l-20.4272-37.249c-3.5112-6.4028-10.1831-10.4341-17.4839-10.5645L123.6331,0L66.199,1.0259
		c-7.3013,0.1304-13.9727,4.1616-17.4839,10.5645l-20.4272,37.249H3.7405c-4.9873,0-4.9873,18.1348,0,18.1348H18.343L7.9661,85.897
		c-4.0166,7.3242-6.1221,15.5425-6.1221,23.896v45.6362c0,5.3618,2.2051,10.4878,6.0977,14.1758
		c3.627,3.436,8.4331,5.3511,13.4297,5.3511h102.2617h102.2622c4.9966,0,9.8027-1.915,13.4297-5.3511
		c3.8926-3.688,6.0977-8.814,6.0977-14.1758V109.793c0-8.3535-2.1055-16.5718-6.1221-23.896l-10.377-18.9229h14.6035
		C248.5139,66.9741,248.5139,48.8394,243.5271,48.8394z M56.9214,16.0906c1.2395-2.26,3.2141-3.9581,5.5298-4.8939l0.0991,4.7379
		l6.0293,7.5361l1.626,4.3384h3.1318l1.3213,3.6328h3.4756l0.8899,2.3389l-1.7932,0.1436l-5.3291,3.7891l-1.3311,4.26
		l-2.4717-2.7802l-0.3135-4.6981L66.3364,30.54l-4.6387-3.2363l-0.2988-3.2852l-1.4941,0.1357l0.3613,3.9805l4.8301,3.3691
		l1.2002,3.2012l0.2729,4.0958l-5.7651,0.3842l-4.3418-0.7793l-7.2148,1.4004l-3.9285-2.5582L56.9214,16.0906z M88.5298,36.4233
		l2.186,2.5503l-2.9031-0.8295l-0.0437-0.0728l-0.3086-0.0278l-0.2666-0.0762l-0.0688,0.046l-3.436-0.3096h-1.5701l-0.9832-2.5872
		l1.7983-0.1438L88.5298,36.4233z M75.1519,48.1812l-2.9387-4.1491l4.5388-0.6456l1.6047,2.1182l-2.9766,2.8096L75.1519,48.1812z
		 M77.6323,40.3384l2.7383-1.1348l0.7112-0.0007l0.5774,2.0775l-3.8987,0.4655L77.6323,40.3384z M88.0522,41.459l-0.061,2.1841
		l-3.8584-1.8318l2.9507-1.967L88.0522,41.459z M78.4712,43.1715l2.9854-0.3565l-0.2783,0.7045l-1.623,1.0821L78.4712,43.1715z
		 M82.4009,44.5068l0.4238-1.0733l2.2393,2.9395h-1.8691l-2.1106-0.9882L82.4009,44.5068z M86.5586,45.8926l-1.4983-1.9805
		l2.1951,1.0421L86.5586,45.8926z M83.0605,40.7236l-0.4248-1.522l0.9858-0.0009l1.5161,0.1377L83.0605,40.7236z M79.6177,46.3628
		l0.0071-0.0047l3.2361,1.515h3.2178l1.4971,3.5884l-7.4375-0.3716l-3.4106-1.9895L79.6177,46.3628z M88.9717,50.9136
		l-1.5366-3.6859l1.2017-1.6178l2.981,1.4151l-0.0957,1.1791L88.9717,50.9136z M89.4722,44.3463l0.0918-3.2838l-0.6216-1.036
		l3.1694,0.9054l-0.3645,4.4944L89.4722,44.3463z M80.5168,37.7036h-0.4451l-4.0332,1.6719l0.2334,2.5643l-4.311,0.6129
		l1.2222-3.9095l4.5791-3.2568l1.8176-0.1453L80.5168,37.7036z M27.5205,69.7039l17.0752-31.1371l4.3413,2.8273l7.5371-1.4619
		l4.2461,0.7617l5.0911-0.3389l-2.8967,3.9541h-3.9004l-3.4102,3.5068l1.1729,4.2866l-1.6797,3.8525l-5.3252,3.6211l0.8438,1.2402
		l5.6826-3.8643l2.0645-4.7354l-1.085-3.9702l2.3691-2.4375h4.0273l3.7495-5.1174l2.8818,3.241l3.8091,5.3803l0.2017,0.1176
		l-1.8452,3.3101l-3.1582,0.9478l-5.9531,5.0557l0.9707,1.1436l5.7148-4.8525l2.3467-0.7043l0.6445,3.5955l3.7363,1.2988
		l0.1943,3.8232l-4.1328,1.583l1.3438,2.7983l1.3516-0.6494l-0.6387-1.3306l3.6289-1.3896l-0.2998-5.9199l-3.8613-1.3428
		l-0.592-3.2993l1.7991-3.2974l0.0271-0.0256l4.1057,2.3943l7.9216,0.3965l-1.199,2.8583l3.3906,3.875l4.0557,2.8354l-0.7744,5.9741
		l3.8281,2.3457l0.7832-1.2793l-2.998-1.8379l0.7666-5.9155l-4.5938-3.1802l-2.7119-3.1006l1.1963-2.855l3.6113-3.8364l0.092-1.1365
		l5.8562,2.7801l4.959-1.7598l6.5588,6.7153l2.7136,3.8414l-0.4893,3.8003l6.1475,1.3799l8.3447-0.1025
		c0.3291,2.127,0.6992,2.5239,1.3105,2.5239v-1.5c0.2881,0,0.4785,0.1777,0.5244,0.2637c-0.1133-0.2085-0.3193-1.2095-0.4404-2.1431
		l-0.0869-0.6611l-9.4961,0.1172l-4.6416-1.042l0.3896-3.0249l-2.1655-3.0641l4.8501,0.3727l0.1152-1.4951l-6.1592-0.4736
		l-7.0732-7.2422l-5.2793,1.873l-5.8088-2.7578l0.4236-5.2329l2.9253-1.3209l7.5215-1.3472l4.1631-4.2725l2.8145-0.3018
		l-0.1602-1.4912l-1.8193,0.1951l1.6631-3.9587l4.4434-0.8076l6.1992-2.4639l-0.5566-1.3926l-5.9844,2.394l-5.1699,0.9399
		l-2.4148,5.7485l-3.9163,4.0191l-7.1387,1.2788l-3.0764,1.366l-3.155-3.6812l2.2803-2.3723l1.9736-4.1616l4.5449,1.082l4.25-6.6118
		l-1.2617-0.8115l-3.6758,5.7183l-4.7031-1.1201l-1.8,3.8842l-1.5134-2.1743v-5.5786l-3.5127-0.2705l-2.4512-4.3486l-3.7197-2.4795
		l0.4287-2.9995l-1.4844-0.2129l-0.5635,3.936l4.208,2.8047l2.668,4.7344l2.9268,0.2246v4.6606l2.1777,3.1281l-2.0217,2.1031
		l-5.6423-1.4631l-2.4861,0.199l-1.4114-3.7142h-3.46l-1.3213-3.6328h-3.1436l-1.3027-3.4766l-5.9033-7.438l-0.0969-4.6751
		c0.7874-0.1938,1.5964-0.3218,2.4265-0.3366l57.2646-1.0218l57.2683,1.0219c3.9438,0.0704,7.5476,2.2479,9.4443,5.7064
		l29.4016,53.6146c1.3096,2.3881-0.4182,5.3065-3.1418,5.3065H30.6626C27.939,75.0104,26.2109,72.092,27.5205,69.7039z
		 M18.2981,98.9021c0.3638-6.3083,5.7747-11.1249,12.0811-10.7603c1.4951,0.0868,2.9412,0.4762,4.219,1.0748l26.7412,12.6129
		c2.8516,1.3445,4.0745,4.7472,2.729,7.5988c-1.0237,2.1689-3.2393,3.3927-5.4949,3.2648l-29.5161-1.7092
		C22.749,110.6184,17.9326,105.2095,18.2981,98.9021z M159.031,160.4316c0,1.0944-0.8872,1.9816-1.9817,1.9816H90.2183
		c-1.0945,0-1.9817-0.8872-1.9817-1.9816v-12.8591c0-1.0945,0.8872-1.9817,1.9817-1.9817h66.8311
		c1.0945,0,1.9817,0.8872,1.9817,1.9817V160.4316z M222.4282,109.9101c-1.3545,0.6389-2.8096,0.988-4.2188,1.0739l-29.5161,1.7092
		c-3.1479,0.1819-5.8477-2.2219-6.0305-5.3696c-0.1389-2.3937,1.2229-4.5288,3.2646-5.494l26.7412-12.6129
		c5.7144-2.6953,12.5308-0.2486,15.2271,5.4665C230.5901,100.3974,228.1426,107.2148,222.4282,109.9101z" id="id_111" style="fill: rgb(19, 37, 48);"></path>
<rect x="108.8994" y="13.6009" width="29.4685" height="7.4186" id="id_112" style="fill: rgb(19, 37, 48);"></rect>
</g>
</svg>